<?xml version="1.0" encoding="UTF-8"?>
<!DOCTYPE svg PUBLIC "-//W3C//DTD SVG 1.1//EN" "http://www.w3.org/Graphics/SVG/1.1/DTD/svg11.dtd">
<!-- Creator: CorelDRAW -->
<svg xmlns="http://www.w3.org/2000/svg" xml:space="preserve" width="22.974mm" height="11.432mm" version="1.1" style="shape-rendering:geometricPrecision; text-rendering:geometricPrecision; image-rendering:optimizeQuality; fill-rule:evenodd; clip-rule:evenodd"
viewBox="0 0 2297.4 1143.2"
 xmlns:xlink="http://www.w3.org/1999/xlink"
 xmlns:xodm="http://www.corel.com/coreldraw/odm/2003">
 <defs>
  <style type="text/css">
   <![CDATA[
    .str0 {stroke:#CFB53B;stroke-width:7.62;stroke-miterlimit:22.9256}
    .fil0 {fill:none}
    .fil2 {fill:#006633}
    .fil1 {fill:gold}
    .fil3 {fill:white;fill-rule:nonzero}
   ]]>
  </style>
 </defs>
 <g id="Camada_x0020_1">
  <metadata id="CorelCorpID_0Corel-Layer"/>
  <polyline class="fil0 str0" points="860.06,435.05 553,435.05 521.85,478.73 447.36,478.73 "/>
  <polyline class="fil0 str0" points="858.22,472.31 559.25,472.31 527.67,515.99 335.44,515.99 310.92,482.68 "/>
  <line class="fil0 str0" x1="613.41" y1="632.87" x2="858.57" y2= "632.87" />
  <line class="fil0 str0" x1="523.72" y1="672.28" x2="860.71" y2= "672.28" />
  <polyline class="fil0 str0" points="341.46,634.79 475.92,634.79 516.92,594.18 857.18,594.18 "/>
  <polyline class="fil0 str0" points="281.93,672.32 409.15,670.79 451.04,714.1 531.42,714.1 "/>
  <polyline class="fil0 str0" points="243.86,485.31 296.54,555.53 529.05,555.53 559.5,516.06 859.67,516.06 "/>
  <line class="fil0 str0" x1="206.92" y1="596.8" x2="461.43" y2= "596.8" />
  <line class="fil0 str0" x1="672.71" y1="749.45" x2="861.46" y2= "749.45" />
  <polyline class="fil0 str0" points="413.94,748.81 548.43,748.81 587.36,710.05 855.67,710.05 "/>
  <polyline class="fil0 str0" points="1025.78,839.02 1025.78,914.15 984.57,955.35 984.57,1000.25 "/>
  <line class="fil0 str0" x1="1026.17" y1="965.63" x2="1026.17" y2= "1080.64" />
  <line class="fil0 str0" x1="1144.04" y1="841.32" x2="1144.04" y2= "918.21" />
  <line class="fil0 str0" x1="1182.3" y1="833.52" x2="1182.3" y2= "1005.04" />
  <polyline class="fil0 str0" points="1222.22,839.98 1222.22,955.36 1261.66,994.81 1263.35,1120.97 "/>
  <line class="fil0 str0" x1="1351.86" y1="749.03" x2="1594.87" y2= "749.03" />
  <line class="fil0 str0" x1="1354.45" y1="633.27" x2="1432.21" y2= "633.27" />
  <line class="fil0 str0" x1="1349.03" y1="671.83" x2="1937.02" y2= "671.83" />
  <line class="fil0 str0" x1="948.62" y1="316.29" x2="948.62" y2= "348.04" />
  <line class="fil0 str0" x1="1065.46" y1="316.29" x2="1065.46" y2= "345.43" />
  <polyline class="fil0 str0" points="947.66,246.3 947.66,220.4 910.31,183.05 910.31,150.66 "/>
  <polyline class="fil0 str0" points="948.41,109.97 948.41,165.51 987.62,204.71 987.62,352.48 "/>
  <line class="fil0 str0" x1="1026.52" y1="82.13" x2="1026.52" y2= "347.71" />
  <polyline class="fil0 str0" points="1143.24,354.24 1143.24,208.95 1061.53,127.24 1061.53,47.56 "/>
  <polyline class="fil0 str0" points="1064.49,201.14 1064.49,249.92 1104.97,290.39 1104.97,345.54 "/>
  <polyline class="fil0 str0" points="1183.47,46.43 1183.47,128.8 1222.01,167.05 1222.01,351.1 "/>
  <polyline class="fil0 str0" points="1222.99,83.95 1222.99,111.41 1261.38,149.81 1261.38,345.67 "/>
  <polyline class="fil0 str0" points="1355.45,437.2 1643.96,437.2 1672.56,398.22 1751.74,398.22 "/>
  <polyline class="fil0 str0" points="1354.12,476.69 1627.85,476.69 1657.53,517.85 1845.16,517.85 1870.02,483.38 "/>
  <polyline class="fil0 str0" points="1350.89,516.1 1619.75,516.1 1647.48,553.57 1870.66,553.57 1922.41,483.67 "/>
  <polyline class="fil0 str0" points="1698.21,586.79 1829.62,586.79 1856.3,626.7 1946.6,626.7 "/>
  <polyline class="fil0 str0" points="1666.85,700.25 1768.07,700.25 1799.04,738.62 1907.18,738.62 "/>
  <polyline class="fil0 str0" points="1354.44,592.51 1471.98,592.51 1505.26,631.32 1616.95,631.32 "/>
  <polyline class="fil0 str0" points="1736.36,633.55 1658.9,633.55 1596.5,554.01 1352.46,554.01 "/>
  <polyline class="fil0 str0" points="1351.25,710.4 1647.78,710.4 1679.66,748.41 1724.1,748.41 "/>
  <line class="fil0 str0" x1="585.5" y1="555.51" x2="858.93" y2= "555.51" />
  <polyline class="fil0 str0" points="947.51,838.8 947.51,1014.28 989.86,1056.64 989.86,1125.43 "/>
  <line class="fil0 str0" x1="986.89" y1="839.02" x2="986.89" y2= "892.9" />
  <line class="fil0 str0" x1="1064.66" y1="842.68" x2="1064.66" y2= "963.48" />
  <polyline class="fil0 str0" points="1104.05,835.87 1104.05,978.59 1144.35,1018.88 1144.35,1072.1 "/>
  <polyline class="fil0 str0" points="1262.41,840.81 1262.41,937.57 1315.47,990.62 1410.12,990.62 "/>
  <polyline class="fil0 str0" points="1143.14,115.72 1143.14,141.87 1182.45,181.18 1182.45,342.32 "/>
  <path class="fil0 str0" d="M1026.17 1080.64c6.15,0 11.14,4.98 11.14,11.14 0,6.15 -4.99,11.14 -11.14,11.14 -6.15,0 -11.14,-4.99 -11.14,-11.14 0,-6.16 4.99,-11.14 11.14,-11.14z"/>
  <path class="fil0 str0" d="M661.57 738.31c6.15,0 11.14,4.99 11.14,11.14 0,6.15 -4.99,11.14 -11.14,11.14 -6.16,0 -11.14,-4.99 -11.14,-11.14 0,-6.15 4.98,-11.14 11.14,-11.14z"/>
  <path class="fil0 str0" d="M402.8 740.11c6.16,0 11.14,4.98 11.14,11.14 0,6.15 -4.98,11.14 -11.14,11.14 -6.15,0 -11.14,-4.99 -11.14,-11.14 0,-6.16 4.99,-11.14 11.14,-11.14z"/>
  <path class="fil0 str0" d="M574.36 544.37c6.15,0 11.14,4.99 11.14,11.14 0,6.15 -4.99,11.14 -11.14,11.14 -6.16,0 -11.15,-4.99 -11.15,-11.14 0,-6.15 4.99,-11.14 11.15,-11.14z"/>
  <path class="fil0 str0" d="M602.27 621.73c6.16,0 11.14,4.99 11.14,11.14 0,6.15 -4.98,11.14 -11.14,11.14 -6.15,0 -11.14,-4.99 -11.14,-11.14 0,-6.15 4.99,-11.14 11.14,-11.14z"/>
  <path class="fil0 str0" d="M512.58 661.14c6.15,0 11.14,4.99 11.14,11.14 0,6.16 -4.99,11.14 -11.14,11.14 -6.15,0 -11.14,-4.98 -11.14,-11.14 0,-6.15 4.99,-11.14 11.14,-11.14z"/>
  <path class="fil0 str0" d="M303.03 463.66c6.16,0 11.16,4.99 11.16,11.14 0,6.15 -5,11.14 -11.16,11.14 -6.15,0 -11.15,-4.99 -11.15,-11.14 0,-6.15 5,-11.14 11.15,-11.14z"/>
  <path class="fil0 str0" d="M237.51 465.01c6.15,0 11.14,4.99 11.14,11.14 0,6.16 -4.99,11.14 -11.14,11.14 -6.15,0 -11.15,-4.98 -11.15,-11.14 0,-6.15 5,-11.14 11.15,-11.14z"/>
  <path class="fil0 str0" d="M195.78 585.66c6.16,0 11.14,4.98 11.14,11.14 0,6.15 -4.98,11.14 -11.14,11.14 -6.15,0 -11.14,-4.99 -11.14,-11.14 0,-6.16 4.99,-11.14 11.14,-11.14z"/>
  <path class="fil0 str0" d="M989.86 1123.97c6.16,0 11.14,4.99 11.14,11.14 0,6.15 -4.98,11.14 -11.14,11.14 -6.15,0 -11.14,-4.99 -11.14,-11.14 0,-6.15 4.99,-11.14 11.14,-11.14z"/>
  <path class="fil0 str0" d="M1144.35 1072.1c6.15,0 11.14,4.99 11.14,11.14 0,6.15 -4.99,11.14 -11.14,11.14 -6.16,0 -11.14,-4.99 -11.14,-11.14 0,-6.15 4.98,-11.14 11.14,-11.14z"/>
  <path class="fil0 str0" d="M1421.26 979.48c6.15,0 11.14,4.99 11.14,11.14 0,6.15 -4.99,11.14 -11.14,11.14 -6.16,0 -11.14,-4.99 -11.14,-11.14 0,-6.15 4.98,-11.14 11.14,-11.14z"/>
  <path class="fil0 str0" d="M1735.25 737.27c6.15,0 11.15,4.99 11.15,11.14 0,6.15 -5,11.14 -11.15,11.14 -6.16,0 -11.15,-4.99 -11.15,-11.14 0,-6.15 4.99,-11.14 11.15,-11.14z"/>
  <path class="fil0 str0" d="M1606.01 737.89c6.16,0 11.14,4.99 11.14,11.14 0,6.15 -4.98,11.14 -11.14,11.14 -6.15,0 -11.14,-4.99 -11.14,-11.14 0,-6.15 4.99,-11.14 11.14,-11.14z"/>
  <path class="fil0 str0" d="M1747.5 622.41c6.15,0 11.14,4.98 11.14,11.14 0,6.15 -4.99,11.14 -11.14,11.14 -6.15,0 -11.14,-4.99 -11.14,-11.14 0,-6.16 4.99,-11.14 11.14,-11.14z"/>
  <path class="fil0 str0" d="M1957.75 615.56c6.16,0 11.15,4.99 11.15,11.14 0,6.15 -4.99,11.14 -11.15,11.14 -6.16,0 -11.16,-4.99 -11.16,-11.14 0,-6.15 5,-11.14 11.16,-11.14z"/>
  <path class="fil0 str0" d="M984.57 1000.25c6.15,0 11.14,4.98 11.14,11.14 0,6.15 -4.99,11.14 -11.14,11.14 -6.15,0 -11.14,-4.99 -11.14,-11.14 0,-6.16 4.99,-11.14 11.14,-11.14z"/>
  <path class="fil0 str0" d="M986.89 892.9c6.15,0 11.14,4.99 11.14,11.14 0,6.16 -4.99,11.14 -11.14,11.14 -6.15,0 -11.14,-4.98 -11.14,-11.14 0,-6.15 4.99,-11.14 11.14,-11.14z"/>
  <path class="fil0 str0" d="M330.32 623.65c6.15,0 11.14,4.99 11.14,11.14 0,6.15 -4.99,11.14 -11.14,11.14 -6.16,0 -11.14,-4.99 -11.14,-11.14 0,-6.15 4.98,-11.14 11.14,-11.14z"/>
  <path class="fil0 str0" d="M436.24 467.59c6.14,0 11.12,4.99 11.12,11.14 0,6.15 -4.98,11.14 -11.12,11.14 -6.16,0 -11.13,-4.99 -11.13,-11.14 0,-6.15 4.97,-11.14 11.13,-11.14z"/>
  <path class="fil0 str0" d="M948.62 294.01c6.15,0 11.14,4.99 11.14,11.14 0,6.16 -4.99,11.14 -11.14,11.14 -6.15,0 -11.14,-4.98 -11.14,-11.14 0,-6.15 4.99,-11.14 11.14,-11.14z"/>
  <path class="fil0 str0" d="M947.66 246.3c6.15,0 11.14,4.98 11.14,11.14 0,6.15 -4.99,11.14 -11.14,11.14 -6.15,0 -11.14,-4.99 -11.14,-11.14 0,-6.16 4.99,-11.14 11.14,-11.14z"/>
  <path class="fil0 str0" d="M910.31 128.38c6.15,0 11.14,4.99 11.14,11.14 0,6.16 -4.99,11.14 -11.14,11.14 -6.16,0 -11.14,-4.98 -11.14,-11.14 0,-6.15 4.98,-11.14 11.14,-11.14z"/>
  <path class="fil0 str0" d="M948.41 87.69c6.15,0 11.14,4.99 11.14,11.14 0,6.15 -4.99,11.14 -11.14,11.14 -6.15,0 -11.14,-4.99 -11.14,-11.14 0,-6.15 4.99,-11.14 11.14,-11.14z"/>
  <path class="fil0 str0" d="M1064.49 178.86c6.15,0 11.14,4.98 11.14,11.14 0,6.15 -4.99,11.14 -11.14,11.14 -6.15,0 -11.14,-4.99 -11.14,-11.14 0,-6.16 4.99,-11.14 11.14,-11.14z"/>
  <path class="fil0 str0" d="M1143.14 93.44c6.15,0 11.14,4.99 11.14,11.14 0,6.15 -4.99,11.14 -11.14,11.14 -6.15,0 -11.14,-4.99 -11.14,-11.14 0,-6.15 4.99,-11.14 11.14,-11.14z"/>
  <path class="fil0 str0" d="M1183.47 24.15c6.15,0 11.14,4.99 11.14,11.14 0,6.15 -4.99,11.14 -11.14,11.14 -6.15,0 -11.14,-4.99 -11.14,-11.14 0,-6.15 4.99,-11.14 11.14,-11.14z"/>
  <path class="fil0 str0" d="M1222.99 61.67c6.15,0 11.14,4.99 11.14,11.14 0,6.16 -4.99,11.14 -11.14,11.14 -6.15,0 -11.14,-4.98 -11.14,-11.14 0,-6.15 4.99,-11.14 11.14,-11.14z"/>
  <path class="fil0 str0" d="M270.79 661.18c6.15,0 11.14,4.99 11.14,11.14 0,6.15 -4.99,11.14 -11.14,11.14 -6.15,0 -11.14,-4.99 -11.14,-11.14 0,-6.15 4.99,-11.14 11.14,-11.14z"/>
  <path class="fil0 str0" d="M1064.66 963.48c6.15,0 11.14,4.99 11.14,11.14 0,6.15 -4.99,11.14 -11.14,11.14 -6.16,0 -11.14,-4.99 -11.14,-11.14 0,-6.15 4.98,-11.14 11.14,-11.14z"/>
  <path class="fil0 str0" d="M1182.3 1005.04c6.15,0 11.14,4.98 11.14,11.14 0,6.15 -4.99,11.14 -11.14,11.14 -6.15,0 -11.14,-4.99 -11.14,-11.14 0,-6.16 4.99,-11.14 11.14,-11.14z"/>
  <path class="fil0 str0" d="M1144.04 918.21c6.15,0 11.14,4.99 11.14,11.14 0,6.16 -4.99,11.14 -11.14,11.14 -6.16,0 -11.14,-4.98 -11.14,-11.14 0,-6.15 4.98,-11.14 11.14,-11.14z"/>
  <path class="fil0 str0" d="M1263.24 1113.05c6.16,0 11.14,4.99 11.14,11.14 0,6.15 -4.98,11.14 -11.14,11.14 -6.15,0 -11.14,-4.99 -11.14,-11.14 0,-6.15 4.99,-11.14 11.14,-11.14z"/>
  <path class="fil0 str0" d="M1918.3 727.48c6.15,0 11.15,4.99 11.15,11.14 0,6.15 -5,11.14 -11.15,11.14 -6.16,0 -11.15,-4.99 -11.15,-11.14 0,-6.15 4.99,-11.14 11.15,-11.14z"/>
  <path class="fil0 str0" d="M1628.11 620.18c6.16,0 11.15,4.99 11.15,11.14 0,6.16 -4.99,11.14 -11.15,11.14 -6.16,0 -11.15,-4.98 -11.15,-11.14 0,-6.15 4.99,-11.14 11.15,-11.14z"/>
  <path class="fil0 str0" d="M1443.35 622.13c6.15,0 11.14,4.99 11.14,11.14 0,6.15 -4.99,11.14 -11.14,11.14 -6.15,0 -11.14,-4.99 -11.14,-11.14 0,-6.15 4.99,-11.14 11.14,-11.14z"/>
  <path class="fil0 str0" d="M1948.16 660.69c6.16,0 11.14,4.99 11.14,11.14 0,6.16 -4.98,11.14 -11.14,11.14 -6.15,0 -11.14,-4.98 -11.14,-11.14 0,-6.15 4.99,-11.14 11.14,-11.14z"/>
  <path class="fil0 str0" d="M1762.89 387.08c6.17,0 11.15,4.99 11.15,11.14 0,6.15 -4.98,11.14 -11.15,11.14 -6.16,0 -11.15,-4.99 -11.15,-11.14 0,-6.15 4.99,-11.14 11.15,-11.14z"/>
  <path class="fil0 str0" d="M1877.22 463.74c6.16,0 11.15,4.99 11.15,11.14 0,6.15 -4.99,11.14 -11.15,11.14 -6.16,0 -11.15,-4.99 -11.15,-11.14 0,-6.15 4.99,-11.14 11.15,-11.14z"/>
  <path class="fil0 str0" d="M1930.29 464.65c6.14,0 11.13,4.99 11.13,11.14 0,6.15 -4.99,11.14 -11.13,11.14 -6.16,0 -11.14,-4.99 -11.14,-11.14 0,-6.15 4.98,-11.14 11.14,-11.14z"/>
  <path class="fil0 str0" d="M1026.52 59.85c6.16,0 11.14,4.99 11.14,11.14 0,6.16 -4.98,11.14 -11.14,11.14 -6.15,0 -11.14,-4.98 -11.14,-11.14 0,-6.15 4.99,-11.14 11.14,-11.14z"/>
  <path class="fil0 str0" d="M1061.53 25.28c6.16,0 11.15,4.99 11.15,11.14 0,6.15 -4.99,11.14 -11.15,11.14 -6.15,0 -11.14,-4.99 -11.14,-11.14 0,-6.15 4.99,-11.14 11.14,-11.14z"/>
  <path class="fil0 str0" d="M1065.46 294.01c6.15,0 11.14,4.99 11.14,11.14 0,6.16 -4.99,11.14 -11.14,11.14 -6.15,0 -11.14,-4.98 -11.14,-11.14 0,-6.15 4.99,-11.14 11.14,-11.14z"/>
  <polygon class="fil1 str0" points="939.5,342.94 957.55,342.94 957.55,389.74 939.5,389.74 "/>
  <polygon class="fil1 str0" points="978.83,342.45 996.88,342.45 996.88,389.25 978.83,389.25 "/>
  <polygon class="fil1 str0" points="1017.37,342.45 1035.42,342.45 1035.42,389.25 1017.37,389.25 "/>
  <polygon class="fil1 str0" points="1056.29,342.45 1074.34,342.45 1074.34,389.25 1056.29,389.25 "/>
  <polygon class="fil1 str0" points="1095.69,342.45 1113.74,342.45 1113.74,389.25 1095.69,389.25 "/>
  <polygon class="fil1 str0" points="1134.61,342.45 1152.66,342.45 1152.66,389.25 1134.61,389.25 "/>
  <polygon class="fil1 str0" points="1173.53,342.45 1191.58,342.45 1191.58,389.25 1173.53,389.25 "/>
  <polygon class="fil1 str0" points="1213.42,342.45 1231.47,342.45 1231.47,389.25 1213.42,389.25 "/>
  <polygon class="fil1 str0" points="1252.33,342.45 1270.38,342.45 1270.38,389.25 1252.33,389.25 "/>
  <polygon class="fil1 str0" points="1308.53,758.74 1308.53,740.7 1355.33,740.7 1355.33,758.74 "/>
  <polygon class="fil1 str0" points="1308.04,719.42 1308.04,701.37 1354.84,701.37 1354.84,719.42 "/>
  <polygon class="fil1 str0" points="1308.04,680.87 1308.04,662.82 1354.84,662.82 1354.84,680.87 "/>
  <polygon class="fil1 str0" points="1308.04,641.95 1308.04,623.91 1354.84,623.91 1354.84,641.95 "/>
  <polygon class="fil1 str0" points="1308.04,602.55 1308.04,584.5 1354.84,584.5 1354.84,602.55 "/>
  <polygon class="fil1 str0" points="1308.04,563.63 1308.04,545.59 1354.84,545.59 1354.84,563.63 "/>
  <polygon class="fil1 str0" points="1308.04,524.72 1308.04,506.67 1354.84,506.67 1354.84,524.72 "/>
  <polygon class="fil1 str0" points="1308.04,484.83 1308.04,466.78 1354.84,466.78 1354.84,484.83 "/>
  <polygon class="fil1 str0" points="939.5,801.15 957.55,801.15 957.55,847.95 939.5,847.95 "/>
  <polygon class="fil1 str0" points="978.83,800.66 996.88,800.66 996.88,847.46 978.83,847.46 "/>
  <polygon class="fil1 str0" points="1017.37,800.66 1035.42,800.66 1035.42,847.46 1017.37,847.46 "/>
  <polygon class="fil1 str0" points="1056.29,800.66 1074.34,800.66 1074.34,847.46 1056.29,847.46 "/>
  <polygon class="fil1 str0" points="1095.69,800.66 1113.74,800.66 1113.74,847.46 1095.69,847.46 "/>
  <polygon class="fil1 str0" points="1134.61,800.66 1152.66,800.66 1152.66,847.46 1134.61,847.46 "/>
  <polygon class="fil1 str0" points="1173.53,800.66 1191.58,800.66 1191.58,847.46 1173.53,847.46 "/>
  <polygon class="fil1 str0" points="1213.42,800.66 1231.47,800.66 1231.47,847.46 1213.42,847.46 "/>
  <polygon class="fil1 str0" points="1252.33,800.66 1270.38,800.66 1270.38,847.46 1252.33,847.46 "/>
  <polygon class="fil2" points="917.36,407.5 1287.8,407.5 1287.8,778.46 917.36,778.46 "/>
  <polygon class="fil1 str0" points="852.2,758.74 852.2,740.7 899,740.7 899,758.74 "/>
  <polygon class="fil1 str0" points="851.71,719.42 851.71,701.37 898.51,701.37 898.51,719.42 "/>
  <polygon class="fil1 str0" points="851.71,680.87 851.71,662.82 898.51,662.82 898.51,680.87 "/>
  <polygon class="fil1 str0" points="851.71,641.95 851.71,623.91 898.51,623.91 898.51,641.95 "/>
  <polygon class="fil1 str0" points="851.71,602.55 851.71,584.5 898.51,584.5 898.51,602.55 "/>
  <polygon class="fil1 str0" points="851.71,563.63 851.71,545.59 898.51,545.59 898.51,563.63 "/>
  <polygon class="fil1 str0" points="851.71,524.72 851.71,506.67 898.51,506.67 898.51,524.72 "/>
  <polygon class="fil1 str0" points="851.71,484.83 851.71,466.78 898.51,466.78 898.51,484.83 "/>
  <polygon class="fil1 str0" points="851.71,445.91 851.71,427.86 898.51,427.86 898.51,445.91 "/>
  <polygon class="fil1 str0" points="1308.04,445.91 1308.04,427.86 1354.84,427.86 1354.84,445.91 "/>
  <path class="fil3" d="M1018.9 558.85l0 73.31 22.22 0c2.91,0 4.37,-1.46 4.37,-4.4l0 -64.51c0,-2.93 -1.46,-4.4 -4.37,-4.4l-22.22 0zm71.35 88.85c0,4.7 -1.73,9 -5.16,12.91 -3.45,3.91 -8.51,5.86 -15.18,5.86l23.78 67.74 -46.94 0 -21.91 -67.74 -5.94 0 0 67.74 -45.38 0 0 -212.6 86.06 0c10.64,0 18.41,2.49 23.31,7.48 4.91,4.98 7.36,11.68 7.36,20.09l0 98.52zm72.29 60.12l-4.07 26.39 -45.7 0 41 -212.6 48.51 0 40.99 212.6 -45.69 0 -4.06 -26.39 -30.98 0zm5 -33.72l20.97 0 -10.33 -75.37 -10.64 75.37z"/>
  <path class="fil3" d="M1271.18 523.72l-50.18 0 0 -36c0,-1.54 0.48,-2.95 1.43,-4.23 0.96,-1.27 2.16,-2.09 3.62,-2.45l24.13 -6.27c0.73,-0.28 1.09,-0.73 1.09,-1.37l0 -15.13c0,-0.37 -0.13,-0.68 -0.41,-0.96 -0.27,-0.27 -0.59,-0.41 -0.95,-0.41l-7.5 0c-0.37,0 -0.68,0.14 -0.96,0.41 -0.27,0.28 -0.41,0.59 -0.41,0.96l0 6.68 -20.04 0 0 -8.86c0,-3.82 1.34,-7.05 4.02,-9.69 2.68,-2.63 5.89,-3.95 9.62,-3.95l22.9 0c3.82,0 7.05,1.32 9.69,3.95 2.63,2.64 3.95,5.87 3.95,9.69l0 22.36c0,1.54 -0.48,2.93 -1.43,4.16 -0.96,1.22 -2.16,2.02 -3.61,2.38l-24.14 6.41c-0.64,0.18 -0.96,0.64 -0.96,1.37l0 16.36 30.14 0 0 14.59z"/>
 </g>
</svg>
